<svg xmlns="http://www.w3.org/2000/svg" viewBox="0 0 10.63 6.96"><defs><style>.cls-1{fill:#010101;}.cls-2{fill:#030303;}.cls-3{fill:#fcfcfc;}.cls-4{fill:#da5e82;}.cls-5{fill:#161816;}.cls-6{fill:#c8eacd;}.cls-7{fill:#c7eace;}.cls-8{fill:#383e3a;}.cls-9{fill:#555c57;}.cls-10{fill:#c7e9cd;}.cls-11{fill:#c9eacf;}.cls-12{fill:#eaeaea;}.cls-13{fill:#ececec;}.cls-14{fill:#e9638a;}.cls-15{fill:#dfdfdf;}.cls-16{fill:#f6f6f6;}.cls-17{fill:#fefefd;}.cls-18{fill:#7e7e7e;}.cls-19{fill:#7c7c7c;}.cls-20{fill:#343434;}</style></defs><g id="Lag_2" data-name="Lag 2"><g id="Lag_1-2" data-name="Lag 1"><path class="cls-1" d="M8.77,4.89A2.12,2.12,0,0,1,8,3.48,3.42,3.42,0,0,1,8.53.9.87.87,0,0,1,8.34.85c-.09,0-.26,0-.22-.17s.16-.06.26-.05A.87.87,0,0,0,9.32.18c0-.08.08-.24.21-.15s0,.19,0,.28S9.36.5,9.29.6c.19.17.49.24.52.56-.45,0-.59.16-.62.6a1.73,1.73,0,0,0,0,.6c0,.17.09.36.3.37s.28-.17.33-.33S9.91,2,10,1.77s.06-.1.13-.09a4.71,4.71,0,0,1,.18,1.44c0,.08.06.15,0,.21a3.67,3.67,0,0,1-.5,1.31c-.09.11-.23.09-.35.14l-.11,0C9.12,4.81,9,5,8.77,4.89Z"/><path class="cls-1" d="M.86,4.64A3.57,3.57,0,0,1,.51,1.72,1.49,1.49,0,0,1,.84,1C1.09.78,1.37.56,1,.2A.12.12,0,0,1,1,0c.09-.06.14,0,.18.09a.87.87,0,0,0,1.06.5c.09,0,.17,0,.19.08s-.08.13-.16.14c-.28,0-.12.18-.07.29a.12.12,0,0,1-.09,0,.44.44,0,0,0-.52.37,1.3,1.3,0,0,0,0,.89c0,.14.1.29.27.31s.25-.12.31-.25a1.47,1.47,0,0,0,.1-.22c.09-.16,0-.42.21-.51A3.71,3.71,0,0,1,2.45,4a1.76,1.76,0,0,1-.6.87c-.19.09-.35-.08-.53-.08l-.1,0C1.1,4.73,1,4.75.86,4.64Z"/><path class="cls-2" d="M6.69,6.87A3.92,3.92,0,0,0,4,6.87a.42.42,0,0,1-.43,0A.92.92,0,0,1,3.17,5.7,2.21,2.21,0,0,1,5.42,4.16,2.16,2.16,0,0,1,7.53,5.78a.84.84,0,0,1-.47,1.09A.33.33,0,0,1,6.69,6.87Z"/><path class="cls-3" d="M10,1.78a1.63,1.63,0,0,1-.19.92c-.17.27-.41.27-.6,0a1.61,1.61,0,0,1,0-1.45c.16-.26.35-.29.59-.09l.14.18A1.1,1.1,0,0,1,10,1.78Z"/><path class="cls-4" d="M9.38,4.71l.38-.07a2.31,2.31,0,0,1,.68.2c.25.15.25.33,0,.49a1.84,1.84,0,0,1-1.57,0,.37.37,0,0,1-.13-.45c.18-.06.34-.2.54-.17s0,0,0,0,.13,0,.18,0S9.41,4.77,9.38,4.71Z"/><path class="cls-4" d="M1.31,4.72c.21,0,.36.12.54.17.11.27,0,.43-.27.52A1.88,1.88,0,0,1,.3,5.4C.15,5.35,0,5.26,0,5.08s.15-.25.29-.29l.57-.15.39.07c0,.06-.1,0-.14.06S1.26,4.78,1.31,4.72Z"/><path class="cls-5" d="M2.5,1.76c-.13.17,0,.4-.13.56-.2-.22-.12-.48-.1-.74,0-.06,0-.13.14-.13Z"/><path class="cls-6" d="M3.58,6.86H4s.12.06.09.07a4.87,4.87,0,0,1-.54,0,0,0,0,0,1,0,0Z"/><path class="cls-7" d="M6.69,6.87H7.1l.05,0a1.58,1.58,0,0,1-.53,0s0,0,0,0Z"/><path class="cls-8" d="M10,1.78A.53.53,0,0,1,10,1.34a.42.42,0,0,1,.15.34Z"/><path class="cls-9" d="M2.41,1.45l-.07.08a.33.33,0,0,1-.22-.41h.09A.5.5,0,0,1,2.41,1.45Z"/><path class="cls-10" d="M3,6.34a.59.59,0,0,1,0-.45A.69.69,0,0,1,3,6.34Z"/><path class="cls-11" d="M10.26,3.33l0-.21c.09.06.07.16.07.24s0,.09,0,.07S10.28,3.37,10.26,3.33Z"/><path class="cls-12" d="M9.4,3.38c0,.15,0,.34-.19.34s-.16-.19-.16-.32,0-.34.19-.33S9.39,3.25,9.4,3.38Z"/><path class="cls-13" d="M8.87,2.56c0,.13,0,.31-.16.32s-.19-.16-.19-.29,0-.34.18-.34S8.84,2.44,8.87,2.56Z"/><path class="cls-14" d="M9.38,4.71l.3,0c-.16.07-.27.07-.37,0A.06.06,0,0,1,9.38,4.71Z"/><path class="cls-3" d="M2.12,1.12l.22.41,0,.79c-.11.24-.13.62-.51.56s-.36-.38-.41-.66a1.37,1.37,0,0,1,.13-.93C1.69,1.07,1.86.92,2.12,1.12Z"/><path class="cls-15" d="M1.79,3.37c0,.16,0,.35-.19.35s-.18-.19-.18-.34,0-.31.16-.32S1.76,3.25,1.79,3.37Z"/><path class="cls-16" d="M1.25,2.53c0,.15,0,.35-.19.35S.91,2.72.9,2.6s0-.33.16-.35S1.22,2.42,1.25,2.53Z"/><path class="cls-14" d="M1.31,4.72c-.09.12-.2.07-.32,0l.26,0S1.3,4.7,1.31,4.72Z"/><path class="cls-17" d="M6.68,5.75a1.31,1.31,0,0,1,.46.3c.11.09.19.18.12.34a.31.31,0,0,1-.31.2,2.52,2.52,0,0,1-.55-.08,4.12,4.12,0,0,0-2.12,0c-.29.07-.7.28-.83-.14s.32-.46.58-.62c0-.16-.08-.11-.16-.09l-.38.07A1.77,1.77,0,0,1,5.27,4.42a1.88,1.88,0,0,1,2,1.31l-.38-.07C6.76,5.64,6.67,5.59,6.68,5.75Z"/><path class="cls-18" d="M3.87,5.66c.09-.06.2-.12.28,0s-.05.1-.12.09S3.91,5.7,3.87,5.66Z"/><path class="cls-19" d="M6.68,5.75c-.07,0-.16,0-.13-.09s.2,0,.29,0S6.71,5.67,6.68,5.75Z"/><path class="cls-20" d="M5.34,5.53c.39-.12.39-.12.67,0A1.41,1.41,0,0,1,5.34,5.53Z"/></g></g></svg>