<svg xmlns="http://www.w3.org/2000/svg" viewBox="0 0 10.67 7.26"><defs><style>.cls-1{fill:#010101;}.cls-2{fill:#070707;}.cls-3{fill:#fbfbfb;}.cls-4{fill:#fcfcfc;}.cls-5{fill:#da5d81;}.cls-6{fill:#101211;}.cls-7{fill:#131614;}.cls-8{fill:#1d221f;}.cls-9{fill:#caecd0;}.cls-10{fill:#c9ecd0;}.cls-11{fill:#c7eacd;}.cls-12{fill:#cbecd1;}.cls-13{fill:#c9ebcf;}.cls-14{fill:#c6e9cd;}.cls-15{fill:#c6e8cd;}.cls-16{fill:#2c302d;}.cls-17{fill:#353936;}.cls-18{fill:#c8ebce;}.cls-19{fill:#636b64;}.cls-20{fill:#ebebeb;}.cls-21{fill:#efefef;}.cls-22{fill:#e8e8e8;}.cls-23{fill:#ddd;}</style></defs><g id="Lag_2" data-name="Lag 2"><g id="Lag_1-2" data-name="Lag 1"><path class="cls-1" d="M8.83,5.58a1.67,1.67,0,0,1-.61-.91,3.65,3.65,0,0,1,0-2.46A1.43,1.43,0,0,1,9,1.32a.26.26,0,0,1,.35,0c.19.16.49.22.49.54-.44,0-.57.14-.6.59a1.74,1.74,0,0,0,.06.75c0,.12.11.25.27.25s.23-.12.28-.24A2.38,2.38,0,0,0,10,2.5c0-.07,0-.16.14-.15a3.54,3.54,0,0,1-.33,3A1.65,1.65,0,0,1,8.83,5.58Z"/><path class="cls-1" d="M.91,5.32A3.53,3.53,0,0,1,.64,2.19a1.49,1.49,0,0,1,.75-.88.23.23,0,0,1,.29,0c.15.1.33.14.42.3a.12.12,0,0,1,0,.15,1.12,1.12,0,0,0-.39,1.41c.06.13.13.28.3.29s.23-.16.29-.29a1.57,1.57,0,0,0,.09-.23c.09-.13,0-.37.21-.43a3.64,3.64,0,0,1-.11,2.35,1.71,1.71,0,0,1-.54.73A1.69,1.69,0,0,1,.91,5.32Z"/><path class="cls-2" d="M6.33,6.89c.45-.27.48-.65.06-.92-.1-.06-.2-.09-.11-.22a.19.19,0,0,1,.28,0,1.65,1.65,0,0,1,.4.54.19.19,0,0,1,0,.28A.9.9,0,0,1,5.55,7c-.26-.16-.39.14-.6.17a.21.21,0,0,1-.28,0,1.05,1.05,0,0,1-.73-.57.3.3,0,0,1,0-.36c.12-.23.19-.5.48-.6.1,0,.23-.06.28.05s0,.17-.16.19a.37.37,0,0,0-.28.34,2.54,2.54,0,0,1,0,.39A.58.58,0,0,0,5,6.9c.26-.05.35-.25.34-.51s0-.27.19-.25.12.18.1.3,0,.39.27.45A1.48,1.48,0,0,1,6.33,6.89Z"/><path class="cls-3" d="M2.43,3c-.1.26-.14.62-.47.61s-.41-.4-.46-.7A1,1,0,0,1,2,1.71a.39.39,0,0,1,.33.22l.08.24A1.71,1.71,0,0,1,2.43,3Z"/><path class="cls-4" d="M10.08,2.52a1.55,1.55,0,0,1-.2.87c-.18.28-.4.28-.59,0a1.61,1.61,0,0,1,0-1.48.32.32,0,0,1,.55-.07h.1c0,.11.06.22.1.33S10,2.41,10.08,2.52Z"/><path class="cls-5" d="M8.83,5.58a3.38,3.38,0,0,1,1-.27c.2.11.45.08.64.2s.28.37,0,.53A2,2,0,0,1,9,6,.32.32,0,0,1,8.83,5.58Z"/><path class="cls-5" d="M.91,5.32a2.9,2.9,0,0,1,1,.26.35.35,0,0,1-.24.5,1.85,1.85,0,0,1-1.35,0C.18,6,0,5.93.05,5.77a.33.33,0,0,1,.26-.28A5.9,5.9,0,0,1,.91,5.32Z"/><path class="cls-6" d="M9.67.28a1.13,1.13,0,0,1,.88.77c0,.09.07.2-.06.23s-.13-.06-.16-.14A.87.87,0,0,0,9.38.52c-.08,0-.17,0-.2-.08s.09-.11.13-.17A.27.27,0,0,1,9.67.28Z"/><path class="cls-7" d="M.82.59a.71.71,0,0,0-.57.54c0,.08-.06.2-.18.15S0,1.12,0,1A1.17,1.17,0,0,1,.92.27a.29.29,0,0,1,.35,0c.15.12.23.23-.05.25a.67.67,0,0,0-.34,0S.84.61.82.59Z"/><path class="cls-8" d="M2.43,3l0-.81c.14.07.14.2.15.33S2.58,2.85,2.43,3Z"/><path class="cls-9" d="M6.33,6.89a.52.52,0,0,1-.47,0A.38.38,0,0,1,6.33,6.89Z"/><path class="cls-10" d="M1.27.08H.92S.8,0,.83,0a3.53,3.53,0,0,1,.46,0,.23.23,0,0,1,0,0Z"/><path class="cls-11" d="M4,6.28v.36c-.18-.1-.06-.25-.06-.38h0Z"/><path class="cls-9" d="M4.67,7.08H5c-.1.18-.24.08-.37,0Z"/><path class="cls-12" d="M9.67.28H9.31c.1-.19.25-.07.38-.06s0,0,0,0S9.68.27,9.67.28Z"/><path class="cls-13" d="M.82.59a0,0,0,0,1,.06,0l.41,0C1.13.65,1,.71.82.59Z"/><path class="cls-14" d="M1.68,1.3H1.39c.1-.18.25-.07.38-.06Z"/><path class="cls-15" d="M9.35,1.08H9C9.09.87,9.25,1,9.37,1s0,0,0,0S9.36,1.07,9.35,1.08Z"/><path class="cls-16" d="M2.33,1.93,2,1.71l.1-.11A.52.52,0,0,1,2.33,1.93Z"/><path class="cls-17" d="M10.08,2.52A.64.64,0,0,1,10,2.19c0-.09,0-.1.08-.08l.07.24Z"/><path class="cls-18" d="M7,6.56V6.28c.16-.06.1.09.09.11S7.15,6.59,7,6.56Z"/><path class="cls-9" d="M4.27,6.65a.37.37,0,0,1,0-.39A.3.3,0,0,1,4.27,6.65Z"/><path class="cls-19" d="M10.08,2.11,10,2.19a.31.31,0,0,1-.06-.33Z"/><path class="cls-20" d="M8.92,3.26c0,.13,0,.33-.18.32s-.17-.18-.17-.31,0-.34.19-.34S8.91,3.12,8.92,3.26Z"/><path class="cls-21" d="M9.1,4.08c0-.12,0-.3.17-.31s.18.17.18.3,0,.34-.19.34S9.12,4.21,9.1,4.08Z"/><path class="cls-22" d="M1.3,3.26c0,.14,0,.34-.19.33S1,3.39,1,3.26s0-.32.15-.33S1.29,3.12,1.3,3.26Z"/><path class="cls-23" d="M1.85,4.1c0,.13,0,.32-.19.31s-.19-.2-.19-.34,0-.31.18-.31S1.82,4,1.85,4.1Z"/></g></g></svg>