<svg xmlns="http://www.w3.org/2000/svg" viewBox="0 0 10.65 8.4"><defs><style>.cls-1{fill:#010101;}.cls-2{fill:#030303;}.cls-3{fill:#fbfbfb;}.cls-4{fill:#da5d82;}.cls-5{fill:#da5d81;}.cls-6{fill:#0d0f0d;}.cls-7{fill:#0c0d0c;}.cls-8{fill:#1c1f1d;}.cls-9{fill:#caedcf;}.cls-10{fill:#383e39;}.cls-11{fill:#c7e9cd;}.cls-12{fill:#aac7af;}.cls-13{fill:#c8ebce;}.cls-14{fill:#c7ebce;}.cls-15{fill:#232325;}.cls-16{fill:#ececec;}.cls-17{fill:#eee;}.cls-18{fill:#dbdbdb;}.cls-19{fill:#eaeaea;}.cls-20{fill:#fcfcfc;}</style></defs><g id="Lag_2" data-name="Lag 2"><g id="Lag_1-2" data-name="Lag 1"><path class="cls-1" d="M10.15,2.35a3.38,3.38,0,0,1-.48,3.12A.62.62,0,0,1,9,5.64a1.37,1.37,0,0,1-.71-.87,3.67,3.67,0,0,1,0-2.57,1.49,1.49,0,0,1,.51-.75.68.68,0,0,1,1.08.4c-.44,0-.58.13-.61.58a1.9,1.9,0,0,0,0,.67c.06.14.11.32.3.33s.25-.17.31-.31A2.62,2.62,0,0,0,10,2.5C10,2.42,10,2.34,10.15,2.35Z"/><path class="cls-1" d="M.41,2.92a3.45,3.45,0,0,1,.5-1.24.7.7,0,0,1,1.25,0,1.06,1.06,0,0,0-.53,1.36c.06.16.11.35.31.37s.25-.18.32-.31.05-.12.08-.19,0-.37.22-.43a3.69,3.69,0,0,1-.08,2.23,1.46,1.46,0,0,1-.72.91.62.62,0,0,1-.71-.17A3.32,3.32,0,0,1,.4,3.06.09.09,0,0,1,.41,2.92Z"/><path class="cls-2" d="M5.76,6a3.69,3.69,0,0,0,.88-.16,1,1,0,0,1,.48,0c.43.17.44.53.41.9A2,2,0,0,1,5.37,8.39a2,2,0,0,1-2-1.8c0-.58.22-.8.8-.74a6.46,6.46,0,0,0,1,.16A1.34,1.34,0,0,1,5.76,6Z"/><path class="cls-3" d="M2.42,3c-.1.25-.14.62-.48.6s-.39-.41-.46-.71a1.35,1.35,0,0,1,.05-.66c.08-.33.26-.55.63-.51l.16.23c0,.13.13.23.13.37A3.87,3.87,0,0,1,2.42,3Z"/><path class="cls-3" d="M10.07,2.52a2.06,2.06,0,0,1-.14.77c-.07.15-.17.29-.34.3s-.31-.15-.37-.31A1.58,1.58,0,0,1,9.23,2c.13-.28.33-.41.61-.15L10,2A3.09,3.09,0,0,1,10.07,2.52Z"/><path class="cls-4" d="M1.05,5.47l.71.17c.25.32.22.48-.15.61a1.82,1.82,0,0,1-1.28,0C.19,6.17,0,6.1,0,5.93S.2,5.7.32,5.62.82,5.58,1.05,5.47Z"/><path class="cls-5" d="M9,5.64l.71-.17c.21,0,.42.07.62.12s.35.12.36.32-.17.29-.33.34a1.76,1.76,0,0,1-1.22,0C8.73,6.11,8.7,6,9,5.64Z"/><path class="cls-6" d="M9.47,0a1.08,1.08,0,0,1,1.07.75c0,.09.07.2,0,.24s-.14-.07-.17-.16a.85.85,0,0,0-.84-.6c-.11,0-.29.08-.3-.09S9.37,0,9.47,0Z"/><path class="cls-7" d="M1.38.11c0,.14-.07.16-.15.15a.88.88,0,0,0-1,.65C.21,1,.16,1,.08,1S0,.92,0,.85A1.12,1.12,0,0,1,1.27,0,.3.3,0,0,1,1.38.11Z"/><path class="cls-8" d="M2.42,3l0-.8a0,0,0,0,1,.07,0l.1.32C2.42,2.63,2.57,2.85,2.42,3Z"/><path class="cls-9" d="M5.76,6a1.34,1.34,0,0,1-.63,0A.64.64,0,0,1,5.76,6Z"/><path class="cls-10" d="M10.07,2.52A.79.79,0,0,1,10,2a.73.73,0,0,1,.15.35Z"/><path class="cls-11" d="M7.64,6.8a.57.57,0,0,1,0-.39C7.71,6.52,7.69,6.63,7.64,6.8Z"/><path class="cls-12" d="M7.12,5.84H6.64A.41.41,0,0,1,7.12,5.84Z"/><path class="cls-13" d="M4.09,5.73a.24.24,0,0,1-.26,0A.24.24,0,0,1,4.09,5.73Z"/><path class="cls-14" d="M.41,2.92v.14C.29,3,.33,2.86.33,2.74.44,2.78.38,2.86.41,2.92Z"/><path class="cls-15" d="M2.46,2.18H2.39a.22.22,0,0,1-.07-.25C2.42,2,2.43,2.09,2.46,2.18Z"/><path class="cls-16" d="M9.45,4.08c0,.14,0,.33-.2.32s-.16-.19-.15-.32,0-.33.18-.32S9.44,4,9.45,4.08Z"/><path class="cls-17" d="M8.92,3.26c0,.13,0,.32-.18.31s-.18-.19-.18-.34,0-.31.18-.3S8.89,3.13,8.92,3.26Z"/><path class="cls-18" d="M1.84,4.1c0,.12,0,.33-.21.3s-.18-.21-.17-.35,0-.31.19-.3S1.82,4,1.84,4.1Z"/><path class="cls-19" d="M1.3,3.25c0,.14,0,.32-.17.32S1,3.38,1,3.24s0-.31.15-.31S1.28,3.11,1.3,3.25Z"/><path class="cls-5" d="M3.62,6.77a4.62,4.62,0,0,0,3.63-.06A1.66,1.66,0,0,1,5.6,8.14,1.82,1.82,0,0,1,3.62,6.77Z"/><path class="cls-20" d="M5.45,6.87a4.07,4.07,0,0,1-1.61-.3c-.11-.05-.29-.06-.23-.26A.32.32,0,0,1,4,6.08a5.58,5.58,0,0,1,.59.1,3.76,3.76,0,0,0,2,0c.26-.06.64-.22.72.14s-.33.3-.54.38A3.93,3.93,0,0,1,5.45,6.87Z"/></g></g></svg>