<svg xmlns="http://www.w3.org/2000/svg" viewBox="0 0 10.61 7.52"><defs><style>.cls-1{fill:#010101;}.cls-2{fill:#fbfbfb;}.cls-3{fill:#060606;}.cls-4{fill:#fcfcfc;}.cls-5{fill:#da5d81;}.cls-6{fill:#131514;}.cls-7{fill:#c7e9ce;}.cls-8{fill:#c6e9cc;}.cls-9{fill:#c8ebce;}.cls-10{fill:#c7e9cd;}.cls-11{fill:#c4e6ca;}.cls-12{fill:#c7eace;}.cls-13{fill:#c6e8cd;}.cls-14{fill:#363a37;}.cls-15{fill:#636c65;}.cls-16{fill:#535753;}.cls-17{fill:#1d201e;}.cls-18{fill:#dfdfdf;}.cls-19{fill:#f4f4f4;}.cls-20{fill:#eee;}.cls-21{fill:#f0f0f0;}</style></defs><g id="Lag_2" data-name="Lag 2"><g id="Lag_1-2" data-name="Lag 1"><path class="cls-1" d="M8.9,5.71a1.6,1.6,0,0,1-.8-1.13,3.31,3.31,0,0,1,.61-3.1c-.1-.12-.4-.08-.33-.3s.22,0,.35,0,.37,0,.55,0A.78.78,0,0,0,9.7.91c.05-.05.11-.14.19-.08s0,.18,0,.24-.27.24-.42.38a1.56,1.56,0,0,1,.39.42A1,1,0,0,0,9.3,3.36c.14.21.32.2.46,0a1.2,1.2,0,0,0,.14-.5A.87.87,0,0,1,10,2.42a.08.08,0,0,1,.1,0A3.54,3.54,0,0,1,10.24,4a2.7,2.7,0,0,1-.65,1.62A.67.67,0,0,1,8.9,5.71Z"/><path class="cls-1" d="M1.66,1.38c.15.14.44.16.42.46a1.1,1.1,0,0,0-.41,1.52c.14.21.31.21.46,0a1.82,1.82,0,0,0,.19-.76c0-.08,0-.16.15-.15a3.78,3.78,0,0,1-.06,2.44,1.4,1.4,0,0,1-.72.86A.64.64,0,0,1,1,5.54,3.43,3.43,0,0,1,.71,2a1.31,1.31,0,0,1,.67-.6A.2.2,0,0,1,1.66,1.38Z"/><path class="cls-2" d="M10,2.41a1.9,1.9,0,0,1-.13,1c-.08.15-.17.29-.36.29a.36.36,0,0,1-.32-.26,1.53,1.53,0,0,1,0-1.35c.13-.3.36-.31.63-.19h0a.43.43,0,0,0,.11.28A.7.7,0,0,1,10,2.41Z"/><path class="cls-3" d="M6.24,7.12a.85.85,0,0,0,.61-.52c.06-.1.1-.24.26-.15s.08.19,0,.31a1.32,1.32,0,0,1-1.92.55C5,7.18,4.88,7,4.64,6.9A3.31,3.31,0,0,0,4,6.9a.56.56,0,0,0-.26.17c-.09.08-.18.2-.3,0s0-.21.08-.3A1.12,1.12,0,0,1,5,6.7c.2.15.35.37.62.42Z"/><path class="cls-4" d="M2.39,2.58a1.65,1.65,0,0,1-.19.88c-.19.29-.41.28-.6,0A1.63,1.63,0,0,1,1.59,2c.12-.19.27-.28.49-.17l.15.08c.09.09.07.22.12.32S2.34,2.47,2.39,2.58Z"/><path class="cls-5" d="M8.9,5.71l.69-.13a2.09,2.09,0,0,1,.74.12c.13.06.28.14.28.3s-.14.25-.27.3a1.85,1.85,0,0,1-1.29,0C8.67,6.19,8.64,6,8.9,5.71Z"/><path class="cls-5" d="M1,5.54l.7.18c.27.3.25.47-.12.6a1.8,1.8,0,0,1-1.35,0A.31.31,0,0,1,0,6c0-.16.11-.22.22-.29S.74,5.65,1,5.54Z"/><path class="cls-6" d="M.89.41C.57.46.44.71.34,1c0,.08-.06.17-.16.12S.1,1,.12.89A1.16,1.16,0,0,1,1,.09a.51.51,0,0,1,.45,0c.1.12.15.22-.08.24S1.07.3.94.39.92.44.89.41Z"/><path class="cls-7" d="M4,6.9a.6.6,0,0,1,.63,0A.7.7,0,0,1,4,6.9Z"/><path class="cls-8" d="M6.24,7.12a.64.64,0,0,1-.63,0A.6.6,0,0,1,6.24,7.12Z"/><path class="cls-9" d="M9.28,1.2a.54.54,0,0,1-.55,0A.5.5,0,0,1,9.28,1.2Z"/><path class="cls-10" d="M1.43.1H.94l0,0a1.14,1.14,0,0,1,.55,0s0,0,0,0S1.44.08,1.43.1Z"/><path class="cls-11" d="M10.39,3.29v.54A.68.68,0,0,1,10.39,3.29Z"/><path class="cls-12" d="M1.66,1.38H1.38s-.14,0-.07-.07a.46.46,0,0,1,.38,0,0,0,0,0,1,0,0S1.67,1.37,1.66,1.38Z"/><path class="cls-13" d="M.89.41a0,0,0,0,1,0,0l.42,0C1.2.48,1,.54.89.41Z"/><path class="cls-14" d="M2.39,2.58a.58.58,0,0,1-.07-.32c0-.09,0-.1.07-.09l.08.25Z"/><path class="cls-15" d="M2.39,2.17l-.07.09a.36.36,0,0,1-.09-.34A.38.38,0,0,1,2.39,2.17Z"/><path class="cls-16" d="M9.92,2.17c-.07-.09-.18-.16-.08-.29a.47.47,0,0,1,.16.29S9.94,2.21,9.92,2.17Z"/><path class="cls-17" d="M9.92,2.17H10l.07.24H10C9.92,2.34,9.93,2.25,9.92,2.17Z"/><path class="cls-18" d="M8.88,3.35c-.05.12,0,.33-.21.31s-.18-.22-.17-.36,0-.31.19-.3S8.86,3.2,8.88,3.35Z"/><path class="cls-19" d="M9.39,4.19c0,.13,0,.32-.2.28S9,4.25,9,4.1s0-.28.18-.26S9.37,4.06,9.39,4.19Z"/><path class="cls-20" d="M.88,3.34c0-.14,0-.33.19-.33s.16.18.16.31,0,.33-.17.33S.9,3.48.88,3.34Z"/><path class="cls-21" d="M1.77,4.12c0,.16,0,.36-.19.35s-.16-.19-.16-.31,0-.31.16-.32S1.74,4,1.77,4.12Z"/></g></g></svg>