<svg xmlns="http://www.w3.org/2000/svg" viewBox="0 0 10.63 7.77"><defs><style>.cls-1{fill:#040404;}.cls-2{fill:#030404;}.cls-3{fill:#da5e82;}.cls-4{fill:#060706;}.cls-5{fill:#121413;}.cls-6{fill:#111412;}.cls-7{fill:#c6e8cd;}.cls-8{fill:#c9ecd0;}.cls-9{fill:#c9edd1;}.cls-10{fill:#cbecd1;}.cls-11{fill:#c7ebce;}.cls-12{fill:#c8ecd0;}.cls-13{fill:#c9ebcf;}.cls-14{fill:#c5e7cc;}</style></defs><g id="Lag_2" data-name="Lag 2"><g id="Lag_1-2" data-name="Lag 1"><path class="cls-1" d="M2.4,3.6a2,2,0,0,0-.46-1.28.52.52,0,0,0-.9,0A2.13,2.13,0,0,0,.57,3.68a.45.45,0,0,1,0,.39c-.07.09-.13.22-.28.16S.16,4.06.16,4A3.1,3.1,0,0,1,.7,2.15a.91.91,0,0,1,1.57,0,2.87,2.87,0,0,1,.54,1.77c0,.13,0,.3-.14.32s-.2-.15-.22-.3a.45.45,0,0,0,0-.11C2.34,3.75,2.36,3.68,2.4,3.6Z"/><path class="cls-2" d="M7.9,3.81a3,3,0,0,1,.5-1.62A.92.92,0,0,1,10,2.2a3.23,3.23,0,0,1,.51,1.73c0,.14,0,.3-.18.31s-.2-.15-.2-.29a3,3,0,0,0-.31-1.34c-.14-.26-.3-.53-.65-.53s-.5.27-.64.53a3.45,3.45,0,0,0-.32,1.18c0,.17.09.45-.19.43S7.94,3.93,7.9,3.81Z"/><path class="cls-3" d="M.94,4.8A1.45,1.45,0,0,1,1.69,5c.27.16.29.36,0,.51a1.63,1.63,0,0,1-1.49,0A.3.3,0,0,1,0,5.2C0,5,.14,5,.26,4.93A1.47,1.47,0,0,1,.94,4.8Z"/><path class="cls-3" d="M9.72,4.8a1.4,1.4,0,0,1,.72.18c.25.16.26.34,0,.48a1.65,1.65,0,0,1-1.53,0c-.27-.14-.27-.36,0-.52A1.43,1.43,0,0,1,9.72,4.8Z"/><path class="cls-4" d="M5.07,7.66a1.6,1.6,0,0,1-1-1.2c-.07-.07,0-.14,0-.22s0-.23.18-.21.13.11.14.21a1.33,1.33,0,0,0,0,.28,1,1,0,0,0,.87.85c.42,0,.75-.34.86-.89,0-.05,0-.1,0-.13s0-.36.21-.31.11.24.1.37a1.46,1.46,0,0,1-1,1.26A.43.43,0,0,1,5.07,7.66Z"/><path class="cls-5" d="M.89.41A.72.72,0,0,0,.27,1c0,.08-.05.2-.18.16S0,1,.05.88A1.09,1.09,0,0,1,1.23.14c.19,0,.25.09.12.26A.61.61,0,0,1,.89.41Z"/><path class="cls-6" d="M9.21.37c0-.12,0-.2.13-.23a1.11,1.11,0,0,1,1.22.74c0,.08.08.19-.05.24S10.37,1,10.33,1A.71.71,0,0,0,9.68.41C9.52.44,9.36.51,9.21.37Z"/><path class="cls-7" d="M5.07,7.66h.44s.12.06.07.07a1.06,1.06,0,0,1-.53,0s0,0,0,0S5.06,7.67,5.07,7.66Z"/><path class="cls-8" d="M.89.41a1,1,0,0,1,.46,0C1.2.55,1.05.49.89.41Z"/><path class="cls-9" d="M2.4,3.6l0,.22,0,.27C2.33,3.92,2.27,3.75,2.4,3.6Z"/><path class="cls-10" d="M9.21.37l.47,0C9.52.51,9.35.55,9.21.37Z"/><path class="cls-11" d="M9.7,0a.43.43,0,0,1-.35,0A.36.36,0,0,1,9.7,0Z"/><path class="cls-11" d="M1.28.06H1C1.07,0,1.17,0,1.28.06Z"/><path class="cls-12" d="M.56,4.07V3.68C.64,3.81.74,4,.56,4.07Z"/><path class="cls-13" d="M6.18,6.35l0,.13c-.1-.09-.09-.2,0-.37Z"/><path class="cls-14" d="M4.08,6.24v.22l0,.1s0,0,0,0S4,6.32,4.08,6.24Z"/></g></g></svg>